PathFileType  4	(X/Y/Z) C:\Users\antoi\Documents\MyRepositories\mobilecap\ResultsAnalysis
DataRate	CameraRate	NumFrames	NumMarkers	Units	OrigDataRate	OrigDataStartFrame	OrigNumFrames
100.0	100.0	4	55	mm	100.0	391	781
Frame#	Time	r_knee			r_shank_antsup			r_ankle			r_calc			r_5meta			r_toe			L_knee			L_shank_antsup			L_ankle			L_calc			L_5meta			L_toe			r_mknee			r_mankle			L_mknee			L_mankle			r_sh2			r_sh3			r_sh4			L_sh2			L_sh3			r_thigh1			r_thigh2			r_thigh3			r_thigh4			r_thigh5			L_thigh1			L_thigh2			L_thigh3			L_thigh4			r.ASIS			r.PSIS			L.ASIS			L.PSIS			C7			R_Shoulder			L_Shoulder			R_Sternum			L_Sternum			R_humerus			R_elbow_med			R_elbow_lat			R_forearm			R_wrist_radius			R_wrist_ulna			L_humerus			L_elbow_med			L_elbow_lat			L_forearm			L_wrist_radius			L_wrist_ulna			R_HJC			L_HJC			R_HJC_reg			L_HJC_reg			
		X1	Y1	Z1	X2	Y2	Z2	X3	Y3	Z3	X4	Y4	Z4	X5	Y5	Z5	X6	Y6	Z6	X7	Y7	Z7	X8	Y8	Z8	X9	Y9	Z9	X10	Y10	Z10	X11	Y11	Z11	X12	Y12	Z12	X13	Y13	Z13	X14	Y14	Z14	X15	Y15	Z15	X16	Y16	Z16	X17	Y17	Z17	X18	Y18	Z18	X19	Y19	Z19	X20	Y20	Z20	X21	Y21	Z21	X22	Y22	Z22	X23	Y23	Z23	X24	Y24	Z24	X25	Y25	Z25	X26	Y26	Z26	X27	Y27	Z27	X28	Y28	Z28	X29	Y29	Z29	X30	Y30	Z30	X31	Y31	Z31	X32	Y32	Z32	X33	Y33	Z33	X34	Y34	Z34	X35	Y35	Z35	X36	Y36	Z36	X37	Y37	Z37	X38	Y38	Z38	X39	Y39	Z39	X40	Y40	Z40	X41	Y41	Z41	X42	Y42	Z42	X43	Y43	Z43	X44	Y44	Z44	X45	Y45	Z45	X46	Y46	Z46	X47	Y47	Z47	X48	Y48	Z48	X49	Y49	Z49	X50	Y50	Z50	X51	Y51	Z51	X52	Y52	Z52	X53	Y53	Z53	X54	Y54	Z54	X55	Y55	Z55	

391	3.90000000	-258.32786	469.98807	-728.55283	-254.83632	400.28405	-700.02921	-273.61868	92.00833	-720.47643	-339.89016	52.81614	-757.66761	-170.29155	43.96027	-687.03912	-128.03602	62.69280	-743.38420	-281.11699	457.29712	-1060.24691	-263.18020	402.61584	-1072.09148	-283.30457	91.69845	-1080.53308	-348.71189	55.46153	-1032.81192	-191.73470	40.06307	-1116.13663	-139.25395	62.14718	-1063.95773	-253.62464	454.40200	-843.77470	-265.48441	93.00160	-797.58322	-255.98909	443.46809	-955.56669	-264.10862	97.47398	-998.41566	-256.63727	290.54526	-690.37323	-329.00646	401.21543	-715.07417	-335.64016	283.06556	-708.85036	-351.22768	408.57586	-1085.00160	-343.69496	288.39783	-1098.44468	-164.78079	772.14989	-753.20903	-168.67565	661.79958	-739.26926	-219.51149	647.08854	-696.97738	-260.88314	783.75571	-701.23732	-270.85420	665.77429	-702.41103	-173.48573	732.60042	-1065.43914	-186.92814	594.20872	-1062.70152	-287.42245	743.27271	-1092.19887	-292.64985	601.95461	-1082.92802	-168.42713	921.01809	-771.87187	-347.71085	935.30750	-857.23065	-154.43701	900.85711	-1031.04814	-345.37508	923.10920	-963.96585	-330.19642	1388.31013	-913.42234	-265.76938	1350.83385	-753.39698	-258.70387	1344.39018	-1077.75652	-201.27448	1324.42411	-892.13334	-201.34262	1322.68517	-936.42472	-240.80244	1111.61328	-672.33095	-272.85071	1006.78272	-725.34609	-268.74995	1027.04579	-656.94417	-215.29891	921.78710	-623.32296	-187.23488	804.10091	-609.87797	-230.16522	797.27374	-605.64000	-211.66982	1216.21639	-1123.53780	-236.80574	1005.94727	-1074.41047	-240.90299	1011.84606	-1134.86968	-194.45480	920.36903	-1172.49015	-170.49309	795.20913	-1173.24956	-206.56219	785.17534	-1174.17743	-233.67870	844.38874	-798.85890	-220.57345	831.30716	-998.29350	-229.21250	840.78709	-801.08661	-225.47732	821.28208	-971.75621	
392	3.91000000	-258.57925	470.61749	-728.47961	-254.86397	400.22320	-700.00838	-273.61907	92.02131	-720.48109	-339.90261	52.81910	-757.64225	-170.28334	43.96310	-687.02493	-128.01662	62.71397	-743.38995	-281.12298	457.31102	-1060.24591	-263.17904	402.62308	-1072.08758	-283.29622	91.70106	-1080.53551	-348.71234	55.46708	-1032.80733	-191.71565	40.04608	-1116.11469	-139.24488	62.11928	-1063.93447	-253.63989	454.36244	-843.81300	-265.48059	93.04007	-797.58565	-255.97626	443.45749	-955.52641	-264.12602	97.46056	-998.44006	-256.61417	290.51360	-690.39305	-329.00068	401.21672	-715.07298	-335.64918	283.05915	-708.84312	-351.24647	408.54220	-1084.95545	-343.69907	288.39291	-1098.43733	-164.77750	772.18013	-753.20319	-168.67435	661.80807	-739.25927	-219.53852	647.05713	-696.97269	-260.87315	783.78022	-700.73871	-270.87559	665.70075	-702.46368	-173.47699	732.64236	-1065.42938	-186.95252	594.21356	-1062.79406	-287.44516	743.29267	-1092.21395	-292.67043	601.95722	-1082.89576	-168.43010	920.98140	-771.89428	-347.76870	935.34894	-857.23691	-154.46754	900.85455	-1031.01858	-345.28022	923.03915	-963.82275	-330.17417	1388.24235	-913.29875	-265.79670	1350.82814	-753.34058	-258.70057	1344.41074	-1077.74616	-201.30711	1324.40829	-892.12982	-201.37751	1322.68255	-936.43372	-240.83718	1111.61668	-672.37271	-272.87191	1006.78133	-725.34778	-268.74358	1027.01804	-657.00426	-215.33987	921.77388	-623.32684	-187.21542	804.10659	-609.96005	-230.20057	797.22854	-605.72280	-211.64943	1216.23847	-1123.52116	-236.70307	1006.00787	-1074.34241	-240.86077	1011.86286	-1134.87048	-194.38985	920.39601	-1172.48969	-170.39594	795.23143	-1173.21510	-206.46633	785.20757	-1174.20420	-233.66941	844.37700	-798.82081	-220.58243	831.28483	-998.25591	-229.41741	840.94304	-801.12466	-225.43484	821.23955	-971.72938	
393	3.92000000	-258.66477	470.82856	-728.46269	-254.80386	400.24167	-699.97654	-273.64884	92.03222	-720.51907	-339.89936	52.83914	-757.64037	-170.28285	43.98241	-687.05257	-128.02636	62.70833	-743.38439	-281.12484	457.32445	-1060.24520	-263.16807	402.64506	-1072.07529	-283.31198	91.73969	-1080.52567	-348.72265	55.46456	-1032.78800	-191.71279	40.05738	-1116.10270	-139.24415	62.13349	-1063.93393	-253.64949	454.33429	-843.84857	-265.47569	93.07569	-797.58249	-255.97292	443.46512	-955.52992	-264.11387	97.47334	-998.43653	-256.60027	290.49861	-690.40212	-328.99651	401.22415	-715.06194	-335.63017	283.06870	-708.83359	-351.26378	408.52810	-1084.91658	-343.94475	287.89925	-1098.44823	-164.78060	772.20524	-753.19585	-168.67737	661.81279	-739.25765	-219.52892	647.05796	-696.97165	-261.29541	783.86764	-699.58578	-270.77200	665.71881	-702.38314	-173.46686	732.68319	-1065.41559	-186.97189	594.24061	-1062.84575	-287.47030	743.30632	-1092.23301	-292.69002	601.97211	-1082.88377	-168.44153	921.00464	-771.90304	-347.83876	935.42894	-857.27266	-154.49124	900.87293	-1031.01272	-345.23650	922.96589	-963.66209	-330.20548	1388.26375	-913.26661	-265.86676	1350.77860	-753.30766	-258.69669	1344.43636	-1077.72980	-201.33421	1324.41190	-892.11216	-201.39211	1322.69541	-936.40565	-240.86304	1111.62292	-672.37569	-272.88570	1006.77253	-725.34811	-268.74109	1026.98045	-657.08530	-215.45994	921.78289	-623.35268	-187.21572	804.08691	-610.00179	-230.20934	797.20295	-605.76026	-211.62978	1216.26969	-1123.49381	-236.46997	1006.10314	-1074.22285	-240.81737	1011.88320	-1134.86339	-194.32088	920.42608	-1172.47296	-170.30729	795.29474	-1173.18468	-206.35455	785.25281	-1174.20764	-233.66452	844.41714	-798.77436	-220.59810	831.27846	-998.20774	-229.60969	841.18470	-801.10015	-225.43941	821.20467	-971.65893	
394	3.93000000	-258.55445	470.61813	-728.50563	-254.70266	400.28781	-699.97286	-273.64164	92.05660	-720.51852	-339.88837	52.86604	-757.63992	-170.29474	44.01945	-687.10138	-128.03433	62.71320	-743.37577	-281.12690	457.34110	-1060.24263	-263.15412	402.67142	-1072.06222	-283.32592	91.77114	-1080.50896	-348.73221	55.46949	-1032.76863	-191.71592	40.08095	-1116.09253	-139.24186	62.18756	-1063.94766	-253.63783	454.36084	-843.82635	-265.47131	93.09565	-797.57717	-255.96744	443.46860	-955.54008	-264.06190	97.50007	-998.36623	-256.58048	290.48399	-690.41606	-328.99198	401.21302	-715.06388	-335.59253	283.08627	-708.84129	-351.25520	408.59540	-1084.93338	-343.93795	287.90275	-1098.43905	-164.78502	772.21504	-753.19183	-168.67474	661.82841	-739.25410	-219.46667	647.12722	-696.99223	-261.72021	784.12160	-698.66764	-270.67868	665.81429	-702.31819	-173.44783	732.72227	-1065.39799	-186.99368	594.29335	-1062.84609	-287.50122	743.32737	-1092.24534	-292.70450	601.99763	-1082.89752	-168.45506	921.03880	-771.94307	-347.85715	935.48555	-857.29340	-154.50961	900.89769	-1031.02460	-345.68918	923.05599	-963.90644	-330.23099	1388.35236	-913.30104	-265.94376	1350.73148	-753.31012	-258.69330	1344.46546	-1077.71107	-201.34989	1324.43101	-892.08414	-201.38275	1322.72619	-936.35671	-240.87719	1111.61989	-672.36768	-272.83882	1006.74767	-725.40177	-268.74914	1026.94168	-657.13218	-215.47826	921.81945	-623.41005	-187.22391	804.06463	-610.02349	-230.15784	797.19831	-605.81739	-211.60922	1216.30153	-1123.46593	-236.25092	1006.14369	-1074.19209	-240.76695	1011.91276	-1134.85655	-194.24693	920.47917	-1172.46717	-170.22433	795.35891	-1173.16830	-206.23663	785.29276	-1174.19486	-233.79624	844.46508	-798.85495	-220.74762	831.32332	-998.28928	-229.31255	841.21101	-800.90441	-225.83981	821.32417	-971.46690	
